{
  "accessors": [
    {
      "bufferView": 2,
      "componentType": 5126,
      "count": 65532,
      "max": [
        0.17620828747749329,
        0.18459148705005646,
        0.12762612104415894
      ],
      "min": [
        -0.17558352649211884,
        -0.18351371586322784,
        -0.0009250639704987407
      ],
      "type": "VEC3"
    },
    {
      "bufferView": 2,
      "byteOffset": 786384,
      "componentType": 5126,
      "count": 65532,
      "max": [
        0.9999983906745911,
        0.999992847442627,
        0.9999982714653015
      ],
      "min": [
        -0.9999303817749023,
        -0.9999926090240479,
        -1.0
      ],
      "type": "VEC3"
    },
    {
      "bufferView": 1,
      "componentType": 5126,
      "count": 65532,
      "max": [
        0.999540388584137,
        0.9616698026657104
      ],
      "min": [
        0.000244140625,
        0.0002534581581130624
      ],
      "type": "VEC2"
    },
    {
      "bufferView": 1,
      "byteOffset": 524256,
      "componentType": 5126,
      "count": 65532,
      "max": [
        0.999540388584137,
        0.9616698026657104
      ],
      "min": [
        0.000244140625,
        0.0002534581581130624
      ],
      "type": "VEC2"
    },
    {
      "bufferView": 0,
      "componentType": 5125,
      "count": 276924,
      "type": "SCALAR"
    },
    {
      "bufferView": 2,
      "byteOffset": 1572768,
      "componentType": 5126,
      "count": 65532,
      "max": [
        0.17597317695617676,
        0.15870672464370728,
        0.17321373522281647
      ],
      "min": [
        0.007559877820312977,
        -0.17082825303077698,
        -0.0005566775216720998
      ],
      "type": "VEC3"
    },
    {
      "bufferView": 2,
      "byteOffset": 2359152,
      "componentType": 5126,
      "count": 65532,
      "max": [
        0.999992847442627,
        0.9999700784683228,
        0.9999940395355225
      ],
      "min": [
        -0.9999825954437256,
        -0.9999737739562988,
        -0.9997925758361816
      ],
      "type": "VEC3"
    },
    {
      "bufferView": 1,
      "byteOffset": 1048512,
      "componentType": 5126,
      "count": 65532,
      "max": [
        0.9996613264083862,
        0.9841307401657104
      ],
      "min": [
        0.00024414059589616954,
        0.0002699686447158456
      ],
      "type": "VEC2"
    },
    {
      "bufferView": 1,
      "byteOffset": 1572768,
      "componentType": 5126,
      "count": 65532,
      "max": [
        0.9996613264083862,
        0.9841307401657104
      ],
      "min": [
        0.00024414059589616954,
        0.0002699686447158456
      ],
      "type": "VEC2"
    },
    {
      "bufferView": 0,
      "byteOffset": 1107696,
      "componentType": 5125,
      "count": 263565,
      "type": "SCALAR"
    },
    {
      "bufferView": 2,
      "byteOffset": 3145536,
      "componentType": 5126,
      "count": 65532,
      "max": [
        0.17558340728282928,
        0.18327096104621887,
        0.18327820301055908
      ],
      "min": [
        -0.176024928689003,
        -0.1829754114151001,
        -0.0009250639704987407
      ],
      "type": "VEC3"
    },
    {
      "bufferView": 2,
      "byteOffset": 3931920,
      "componentType": 5126,
      "count": 65532,
      "max": [
        0.999966025352478,
        0.9999292492866516,
        0.9999991655349731
      ],
      "min": [
        -0.9999986290931702,
        -0.9999737739562988,
        -0.9999961256980896
      ],
      "type": "VEC3"
    },
    {
      "bufferView": 1,
      "byteOffset": 2097024,
      "componentType": 5126,
      "count": 65532,
      "max": [
        0.9997523427009583,
        0.9821776151657104
      ],
      "min": [
        0.0002441405667923391,
        0.00024743808899074793
      ],
      "type": "VEC2"
    },
    {
      "bufferView": 1,
      "byteOffset": 2621280,
      "componentType": 5126,
      "count": 65532,
      "max": [
        0.9997523427009583,
        0.9821776151657104
      ],
      "min": [
        0.0002441405667923391,
        0.00024743808899074793
      ],
      "type": "VEC2"
    },
    {
      "bufferView": 0,
      "byteOffset": 2161956,
      "componentType": 5125,
      "count": 250593,
      "type": "SCALAR"
    },
    {
      "bufferView": 2,
      "byteOffset": 4718304,
      "componentType": 5126,
      "count": 65532,
      "max": [
        0.049009885638952255,
        0.09675566852092743,
        0.16382554173469543
      ],
      "min": [
        -0.176024928689003,
        -0.18274447321891785,
        -0.0001352131221210584
      ],
      "type": "VEC3"
    },
    {
      "bufferView": 2,
      "byteOffset": 5504688,
      "componentType": 5126,
      "count": 65532,
      "max": [
        0.9999329447746277,
        0.9999967217445374,
        0.9999994039535522
      ],
      "min": [
        -0.9999905824661255,
        -0.9999879002571106,
        -0.9999978542327881
      ],
      "type": "VEC3"
    },
    {
      "bufferView": 1,
      "byteOffset": 3145536,
      "componentType": 5126,
      "count": 65532,
      "max": [
        0.9996501803398132,
        0.9724119901657104
      ],
      "min": [
        0.000244140625,
        0.00024785532150417566
      ],
      "type": "VEC2"
    },
    {
      "bufferView": 1,
      "byteOffset": 3669792,
      "componentType": 5126,
      "count": 65532,
      "max": [
        0.9996501803398132,
        0.9724119901657104
      ],
      "min": [
        0.000244140625,
        0.00024785532150417566
      ],
      "type": "VEC2"
    },
    {
      "bufferView": 0,
      "byteOffset": 3164328,
      "componentType": 5125,
      "count": 273447,
      "type": "SCALAR"
    },
    {
      "bufferView": 2,
      "byteOffset": 6291072,
      "componentType": 5126,
      "count": 65532,
      "max": [
        0.048844076693058014,
        0.05550672486424446,
        0.13894394040107727
      ],
      "min": [
        -0.14953291416168213,
        -0.18269070982933044,
        -0.0001352131221210584
      ],
      "type": "VEC3"
    },
    {
      "bufferView": 2,
      "byteOffset": 7077456,
      "componentType": 5126,
      "count": 65532,
      "max": [
        0.9999939799308777,
        0.999907374382019,
        0.9999946355819702
      ],
      "min": [
        -0.9999350905418396,
        -0.9999486804008484,
        -0.9999997615814209
      ],
      "type": "VEC3"
    },
    {
      "bufferView": 1,
      "byteOffset": 4194048,
      "componentType": 5126,
      "count": 65532,
      "max": [
        0.9996988773345947,
        0.9714354276657104
      ],
      "min": [
        0.00024414061044808477,
        0.0002528621116653085
      ],
      "type": "VEC2"
    },
    {
      "bufferView": 1,
      "byteOffset": 4718304,
      "componentType": 5126,
      "count": 65532,
      "max": [
        0.9996988773345947,
        0.9714354276657104
      ],
      "min": [
        0.00024414061044808477,
        0.0002528621116653085
      ],
      "type": "VEC2"
    },
    {
      "bufferView": 0,
      "byteOffset": 4258116,
      "componentType": 5125,
      "count": 261198,
      "type": "SCALAR"
    },
    {
      "bufferView": 2,
      "byteOffset": 7863840,
      "componentType": 5126,
      "count": 65532,
      "max": [
        0.05019199475646019,
        0.06515539437532425,
        0.14356961846351624
      ],
      "min": [
        -0.17568792402744293,
        -0.10474170744419098,
        5.364417461350968e-07
      ],
      "type": "VEC3"
    },
    {
      "bufferView": 2,
      "byteOffset": 8650224,
      "componentType": 5126,
      "count": 65532,
      "max": [
        0.9999939799308777,
        0.9999967217445374,
        0.9999864101409912
      ],
      "min": [
        -0.9999890327453613,
        -0.9999879002571106,
        -0.9999876022338867
      ],
      "type": "VEC3"
    },
    {
      "bufferView": 1,
      "byteOffset": 5242560,
      "componentType": 5126,
      "count": 65532,
      "max": [
        0.999712347984314,
        0.9714354276657104
      ],
      "min": [
        0.000244140625,
        0.00025184883270412683
      ],
      "type": "VEC2"
    },
    {
      "bufferView": 1,
      "byteOffset": 5766816,
      "componentType": 5126,
      "count": 65532,
      "max": [
        0.999712347984314,
        0.9714354276657104
      ],
      "min": [
        0.000244140625,
        0.00025184883270412683
      ],
      "type": "VEC2"
    },
    {
      "bufferView": 0,
      "byteOffset": 5302908,
      "componentType": 5125,
      "count": 259557,
      "type": "SCALAR"
    },
    {
      "bufferView": 2,
      "byteOffset": 9436608,
      "componentType": 5126,
      "count": 65532,
      "max": [
        0.054410867393016815,
        0.1842033416032791,
        0.19602251052856445
      ],
      "min": [
        -0.17539039254188538,
        -0.11572258174419403,
        -0.00020447370479814708
      ],
      "type": "VEC3"
    },
    {
      "bufferView": 2,
      "byteOffset": 10222992,
      "componentType": 5126,
      "count": 65532,
      "max": [
        0.9999895095825195,
        0.9999961853027344,
        0.9999971985816956
      ],
      "min": [
        -0.9999905824661255,
        -0.9999647736549377,
        -0.999992847442627
      ],
      "type": "VEC3"
    },
    {
      "bufferView": 1,
      "byteOffset": 6291072,
      "componentType": 5126,
      "count": 65532,
      "max": [
        0.999131441116333,
        0.9724119901657104
      ],
      "min": [
        0.000244140625,
        0.0002488686004653573
      ],
      "type": "VEC2"
    },
    {
      "bufferView": 1,
      "byteOffset": 6815328,
      "componentType": 5126,
      "count": 65532,
      "max": [
        0.999131441116333,
        0.9724119901657104
      ],
      "min": [
        0.000244140625,
        0.0002488686004653573
      ],
      "type": "VEC2"
    },
    {
      "bufferView": 0,
      "byteOffset": 6341136,
      "componentType": 5125,
      "count": 263298,
      "type": "SCALAR"
    },
    {
      "bufferView": 2,
      "byteOffset": 11009376,
      "componentType": 5126,
      "count": 65532,
      "max": [
        0.048732683062553406,
        0.1839054971933365,
        0.11295196413993835
      ],
      "min": [
        -0.16283346712589264,
        0.05366796627640724,
        -0.0008963643340393901
      ],
      "type": "VEC3"
    },
    {
      "bufferView": 2,
      "byteOffset": 11795760,
      "componentType": 5126,
      "count": 65532,
      "max": [
        0.999978244304657,
        0.9999293684959412,
        0.9999880194664001
      ],
      "min": [
        -0.999971866607666,
        -0.9999810457229614,
        -0.9999917149543762
      ],
      "type": "VEC3"
    },
    {
      "bufferView": 1,
      "byteOffset": 7339584,
      "componentType": 5126,
      "count": 65532,
      "max": [
        0.9996223449707031,
        0.9821776151657104
      ],
      "min": [
        0.000244140625,
        0.0002615643898025155
      ],
      "type": "VEC2"
    },
    {
      "bufferView": 1,
      "byteOffset": 7863840,
      "componentType": 5126,
      "count": 65532,
      "max": [
        0.9996223449707031,
        0.9821776151657104
      ],
      "min": [
        0.000244140625,
        0.0002615643898025155
      ],
      "type": "VEC2"
    },
    {
      "bufferView": 0,
      "byteOffset": 7394328,
      "componentType": 5125,
      "count": 270060,
      "type": "SCALAR"
    },
    {
      "bufferView": 2,
      "byteOffset": 12582144,
      "componentType": 5126,
      "count": 65532,
      "max": [
        0.17568057775497437,
        0.18459148705005646,
        0.0896480455994606
      ],
      "min": [
        -0.17620113492012024,
        -0.18394207954406738,
        -1.1771915524150245e-05
      ],
      "type": "VEC3"
    },
    {
      "bufferView": 2,
      "byteOffset": 13368528,
      "componentType": 5126,
      "count": 65532,
      "max": [
        0.9999955892562866,
        0.9999232292175293,
        0.9999988079071045
      ],
      "min": [
        -0.9999930262565613,
        -0.9999977350234985,
        -0.9999976754188538
      ],
      "type": "VEC3"
    },
    {
      "bufferView": 1,
      "byteOffset": 8388096,
      "componentType": 5126,
      "count": 65532,
      "max": [
        0.9994761943817139,
        0.9763182401657104
      ],
      "min": [
        0.000244140625,
        0.00024743808899074793
      ],
      "type": "VEC2"
    },
    {
      "bufferView": 1,
      "byteOffset": 8912352,
      "componentType": 5126,
      "count": 65532,
      "max": [
        0.9994761943817139,
        0.9763182401657104
      ],
      "min": [
        0.000244140625,
        0.00024743808899074793
      ],
      "type": "VEC2"
    },
    {
      "bufferView": 0,
      "byteOffset": 8474568,
      "componentType": 5125,
      "count": 259233,
      "type": "SCALAR"
    },
    {
      "bufferView": 2,
      "byteOffset": 14154912,
      "componentType": 5126,
      "count": 65532,
      "max": [
        0.03591855987906456,
        0.1678076684474945,
        0.19596949219703674
      ],
      "min": [
        -0.17560479044914246,
        -0.17087717354297638,
        0.00040829175850376487
      ],
      "type": "VEC3"
    },
    {
      "bufferView": 2,
      "byteOffset": 14941296,
      "componentType": 5126,
      "count": 65532,
      "max": [
        0.9999939799308777,
        0.9999942779541016,
        0.9999927282333374
      ],
      "min": [
        -0.9999982714653015,
        -0.9999647736549377,
        -0.9981746077537537
      ],
      "type": "VEC3"
    },
    {
      "bufferView": 1,
      "byteOffset": 9436608,
      "componentType": 5126,
      "count": 65532,
      "max": [
        0.9996583461761475,
        0.9733885526657104
      ],
      "min": [
        0.000244140625,
        0.0002520872512832284
      ],
      "type": "VEC2"
    },
    {
      "bufferView": 1,
      "byteOffset": 9960864,
      "componentType": 5126,
      "count": 65532,
      "max": [
        0.9996583461761475,
        0.9733885526657104
      ],
      "min": [
        0.000244140625,
        0.0002520872512832284
      ],
      "type": "VEC2"
    },
    {
      "bufferView": 0,
      "byteOffset": 9511500,
      "componentType": 5125,
      "count": 254928,
      "type": "SCALAR"
    },
    {
      "bufferView": 2,
      "byteOffset": 15727680,
      "componentType": 5126,
      "count": 65533,
      "max": [
        0.02025969699025154,
        0.009965531527996063,
        0.12276871502399445
      ],
      "min": [
        -0.17573626339435577,
        -0.17078670859336853,
        0.005533068906515837
      ],
      "type": "VEC3"
    },
    {
      "bufferView": 2,
      "byteOffset": 16514076,
      "componentType": 5126,
      "count": 65533,
      "max": [
        0.9999073147773743,
        0.9999176859855652,
        0.999990701675415
      ],
      "min": [
        -0.9999743700027466,
        -0.9999480843544006,
        -0.9975789785385132
      ],
      "type": "VEC3"
    },
    {
      "bufferView": 1,
      "byteOffset": 10485120,
      "componentType": 5126,
      "count": 65533,
      "max": [
        0.9997462630271912,
        0.9704588651657104
      ],
      "min": [
        0.000244140625,
        0.00024612678680568933
      ],
      "type": "VEC2"
    },
    {
      "bufferView": 1,
      "byteOffset": 11009384,
      "componentType": 5126,
      "count": 65533,
      "max": [
        0.9997462630271912,
        0.9704588651657104
      ],
      "min": [
        0.000244140625,
        0.00024612678680568933
      ],
      "type": "VEC2"
    },
    {
      "bufferView": 0,
      "byteOffset": 10531212,
      "componentType": 5125,
      "count": 265950,
      "type": "SCALAR"
    },
    {
      "bufferView": 2,
      "byteOffset": 17300472,
      "componentType": 5126,
      "count": 26975,
      "max": [
        0.046194661408662796,
        0.00461735762655735,
        0.12279202044010162
      ],
      "min": [
        -0.08814699947834015,
        -0.1707458347082138,
        0.0001245140883838758
      ],
      "type": "VEC3"
    },
    {
      "bufferView": 2,
      "byteOffset": 17624172,
      "componentType": 5126,
      "count": 26975,
      "max": [
        0.9999595880508423,
        0.9997847080230713,
        0.9999939203262329
      ],
      "min": [
        -0.999915599822998,
        -0.9997866153717041,
        -0.9996660351753235
      ],
      "type": "VEC3"
    },
    {
      "bufferView": 1,
      "byteOffset": 11533648,
      "componentType": 5126,
      "count": 26975,
      "max": [
        0.9997203350067139,
        0.9968260526657104
      ],
      "min": [
        0.000244140625,
        0.0002748562255874276
      ],
      "type": "VEC2"
    },
    {
      "bufferView": 1,
      "byteOffset": 11749448,
      "componentType": 5126,
      "count": 26975,
      "max": [
        0.9997203350067139,
        0.9968260526657104
      ],
      "min": [
        0.000244140625,
        0.0002748562255874276
      ],
      "type": "VEC2"
    },
    {
      "bufferView": 0,
      "byteOffset": 11595012,
      "componentType": 5125,
      "count": 101199,
      "type": "SCALAR"
    }
  ],
  "asset": {
    "extras": {
      "author": "M Parkinson (https://sketchfab.com/chimaera_studio)",
      "license": "CC-BY-4.0 (http://creativecommons.org/licenses/by/4.0/)",
      "source": "https://sketchfab.com/3d-models/horsetail-grass-f69642f6d9524f5d8bc150375479894b",
      "title": "Horsetail grass"
    },
    "generator": "Sketchfab-16.10.0",
    "version": "2.0"
  },
  "bufferViews": [
    {
      "buffer": 0,
      "byteLength": 11999808,
      "name": "floatBufferViews",
      "target": 34963
    },
    {
      "buffer": 0,
      "byteLength": 11965248,
      "byteOffset": 11999808,
      "byteStride": 8,
      "name": "floatBufferViews",
      "target": 34962
    },
    {
      "buffer": 0,
      "byteLength": 17947872,
      "byteOffset": 23965056,
      "byteStride": 12,
      "name": "floatBufferViews",
      "target": 34962
    }
  ],
  "buffers": [
    {
      "byteLength": 41912928,
      "uri": "scene.bin"
    }
  ],
  "extensionsUsed": [
    "KHR_materials_unlit"
  ],
  "images": [
    {
      "uri": "textures/tex_u1_v1_baseColor.jpeg"
    }
  ],
  "materials": [
    {
      "doubleSided": true,
      "extensions": {
        "KHR_materials_unlit": {}
      },
      "name": "tex_u1_v1",
      "pbrMetallicRoughness": {
        "baseColorTexture": {
          "index": 0
        },
        "metallicFactor": 0.0
      }
    }
  ],
  "meshes": [
    {
      "name": "model_tex_u1_v1_0",
      "primitives": [
        {
          "attributes": {
            "NORMAL": 1,
            "POSITION": 0,
            "TEXCOORD_0": 2,
            "TEXCOORD_1": 3
          },
          "indices": 4,
          "material": 0,
          "mode": 4
        }
      ]
    },
    {
      "name": "model_tex_u1_v1_0",
      "primitives": [
        {
          "attributes": {
            "NORMAL": 6,
            "POSITION": 5,
            "TEXCOORD_0": 7,
            "TEXCOORD_1": 8
          },
          "indices": 9,
          "material": 0,
          "mode": 4
        }
      ]
    },
    {
      "name": "model_tex_u1_v1_0",
      "primitives": [
        {
          "attributes": {
            "NORMAL": 11,
            "POSITION": 10,
            "TEXCOORD_0": 12,
            "TEXCOORD_1": 13
          },
          "indices": 14,
          "material": 0,
          "mode": 4
        }
      ]
    },
    {
      "name": "model_tex_u1_v1_0",
      "primitives": [
        {
          "attributes": {
            "NORMAL": 16,
            "POSITION": 15,
            "TEXCOORD_0": 17,
            "TEXCOORD_1": 18
          },
          "indices": 19,
          "material": 0,
          "mode": 4
        }
      ]
    },
    {
      "name": "model_tex_u1_v1_0",
      "primitives": [
        {
          "attributes": {
            "NORMAL": 21,
            "POSITION": 20,
            "TEXCOORD_0": 22,
            "TEXCOORD_1": 23
          },
          "indices": 24,
          "material": 0,
          "mode": 4
        }
      ]
    },
    {
      "name": "model_tex_u1_v1_0",
      "primitives": [
        {
          "attributes": {
            "NORMAL": 26,
            "POSITION": 25,
            "TEXCOORD_0": 27,
            "TEXCOORD_1": 28
          },
          "indices": 29,
          "material": 0,
          "mode": 4
        }
      ]
    },
    {
      "name": "model_tex_u1_v1_0",
      "primitives": [
        {
          "attributes": {
            "NORMAL": 31,
            "POSITION": 30,
            "TEXCOORD_0": 32,
            "TEXCOORD_1": 33
          },
          "indices": 34,
          "material": 0,
          "mode": 4
        }
      ]
    },
    {
      "name": "model_tex_u1_v1_0",
      "primitives": [
        {
          "attributes": {
            "NORMAL": 36,
            "POSITION": 35,
            "TEXCOORD_0": 37,
            "TEXCOORD_1": 38
          },
          "indices": 39,
          "material": 0,
          "mode": 4
        }
      ]
    },
    {
      "name": "model_tex_u1_v1_0",
      "primitives": [
        {
          "attributes": {
            "NORMAL": 41,
            "POSITION": 40,
            "TEXCOORD_0": 42,
            "TEXCOORD_1": 43
          },
          "indices": 44,
          "material": 0,
          "mode": 4
        }
      ]
    },
    {
      "name": "model_tex_u1_v1_0",
      "primitives": [
        {
          "attributes": {
            "NORMAL": 46,
            "POSITION": 45,
            "TEXCOORD_0": 47,
            "TEXCOORD_1": 48
          },
          "indices": 49,
          "material": 0,
          "mode": 4
        }
      ]
    },
    {
      "name": "model_tex_u1_v1_0",
      "primitives": [
        {
          "attributes": {
            "NORMAL": 51,
            "POSITION": 50,
            "TEXCOORD_0": 52,
            "TEXCOORD_1": 53
          },
          "indices": 54,
          "material": 0,
          "mode": 4
        }
      ]
    },
    {
      "name": "model_tex_u1_v1_0",
      "primitives": [
        {
          "attributes": {
            "NORMAL": 56,
            "POSITION": 55,
            "TEXCOORD_0": 57,
            "TEXCOORD_1": 58
          },
          "indices": 59,
          "material": 0,
          "mode": 4
        }
      ]
    }
  ],
  "nodes": [
    {
      "children": [
        1
      ],
      "matrix": [
        1.0,
        0.0,
        0.0,
        0.0,
        0.0,
        2.220446049250313e-16,
        -1.0,
        0.0,
        0.0,
        1.0,
        2.220446049250313e-16,
        0.0,
        0.0,
        0.0,
        0.0,
        1.0
      ],
      "name": "Sketchfab_model"
    },
    {
      "children": [
        2
      ],
      "matrix": [
        1.0,
        0.0,
        0.0,
        0.0,
        0.0,
        0.0,
        1.0,
        0.0,
        0.0,
        -1.0,
        0.0,
        0.0,
        0.0,
        0.0,
        0.0,
        1.0
      ],
      "name": "model.fbx"
    },
    {
      "children": [
        3
      ],
      "name": "RootNode"
    },
    {
      "children": [
        4,
        5,
        6,
        7,
        8,
        9,
        10,
        11,
        12,
        13,
        14,
        15
      ],
      "matrix": [
        1.0,
        0.0,
        0.0,
        0.0,
        0.0,
        2.220446049250313e-16,
        -1.0,
        0.0,
        0.0,
        1.0,
        2.220446049250313e-16,
        0.0,
        0.0,
        0.0,
        0.0,
        1.0
      ],
      "name": "model"
    },
    {
      "mesh": 0,
      "name": "model_tex_u1_v1_0"
    },
    {
      "mesh": 1,
      "name": "model_tex_u1_v1_0"
    },
    {
      "mesh": 2,
      "name": "model_tex_u1_v1_0"
    },
    {
      "mesh": 3,
      "name": "model_tex_u1_v1_0"
    },
    {
      "mesh": 4,
      "name": "model_tex_u1_v1_0"
    },
    {
      "mesh": 5,
      "name": "model_tex_u1_v1_0"
    },
    {
      "mesh": 6,
      "name": "model_tex_u1_v1_0"
    },
    {
      "mesh": 7,
      "name": "model_tex_u1_v1_0"
    },
    {
      "mesh": 8,
      "name": "model_tex_u1_v1_0"
    },
    {
      "mesh": 9,
      "name": "model_tex_u1_v1_0"
    },
    {
      "mesh": 10,
      "name": "model_tex_u1_v1_0"
    },
    {
      "mesh": 11,
      "name": "model_tex_u1_v1_0"
    }
  ],
  "samplers": [
    {
      "magFilter": 9729,
      "minFilter": 9987,
      "wrapS": 10497,
      "wrapT": 10497
    }
  ],
  "scene": 0,
  "scenes": [
    {
      "name": "Sketchfab_Scene",
      "nodes": [
        0
      ]
    }
  ],
  "textures": [
    {
      "sampler": 0,
      "source": 0
    }
  ]
}
