{
  "accessors": [
    {
      "bufferView": 2,
      "componentType": 5126,
      "count": 65532,
      "max": [
        419.494873046875,
        1.52587890625e-05,
        144.51431274414063
      ],
      "min": [
        -419.54486083984375,
        -192.9966583251953,
        -148.9669189453125
      ],
      "type": "VEC3"
    },
    {
      "bufferView": 2,
      "byteOffset": 786384,
      "componentType": 5126,
      "count": 65532,
      "max": [
        1.0,
        0.9999996423721313,
        1.0
      ],
      "min": [
        -1.0,
        -1.0,
        -1.0
      ],
      "type": "VEC3"
    },
    {
      "bufferView": 1,
      "componentType": 5126,
      "count": 65532,
      "max": [
        0.9999990463256836,
        0.9427914619445801
      ],
      "min": [
        9.5367431640625e-07,
        1.0132789611816406e-06
      ],
      "type": "VEC2"
    },
    {
      "bufferView": 1,
      "byteOffset": 524256,
      "componentType": 5126,
      "count": 65532,
      "max": [
        0.9999990463256836,
        0.9427914619445801
      ],
      "min": [
        9.5367431640625e-07,
        1.0132789611816406e-06
      ],
      "type": "VEC2"
    },
    {
      "bufferView": 1,
      "byteOffset": 1048512,
      "componentType": 5126,
      "count": 65532,
      "max": [
        0.9999990463256836,
        0.9427914619445801
      ],
      "min": [
        9.5367431640625e-07,
        1.0132789611816406e-06
      ],
      "type": "VEC2"
    },
    {
      "bufferView": 1,
      "byteOffset": 1572768,
      "componentType": 5126,
      "count": 65532,
      "max": [
        0.9999990463256836,
        0.9427914619445801
      ],
      "min": [
        9.5367431640625e-07,
        1.0132789611816406e-06
      ],
      "type": "VEC2"
    },
    {
      "bufferView": 1,
      "byteOffset": 2097024,
      "componentType": 5126,
      "count": 65532,
      "max": [
        0.9999990463256836,
        0.9427914619445801
      ],
      "min": [
        9.5367431640625e-07,
        1.0132789611816406e-06
      ],
      "type": "VEC2"
    },
    {
      "bufferView": 1,
      "byteOffset": 2621280,
      "componentType": 5126,
      "count": 65532,
      "max": [
        0.9999990463256836,
        0.9427914619445801
      ],
      "min": [
        9.5367431640625e-07,
        1.0132789611816406e-06
      ],
      "type": "VEC2"
    },
    {
      "bufferView": 1,
      "byteOffset": 3145536,
      "componentType": 5126,
      "count": 65532,
      "max": [
        0.9999990463256836,
        0.9427914619445801
      ],
      "min": [
        9.5367431640625e-07,
        1.0132789611816406e-06
      ],
      "type": "VEC2"
    },
    {
      "bufferView": 1,
      "byteOffset": 3669792,
      "componentType": 5126,
      "count": 65532,
      "max": [
        0.9999990463256836,
        0.9427914619445801
      ],
      "min": [
        9.5367431640625e-07,
        1.0132789611816406e-06
      ],
      "type": "VEC2"
    },
    {
      "bufferView": 1,
      "byteOffset": 4194048,
      "componentType": 5126,
      "count": 65532,
      "max": [
        0.9999990463256836,
        0.9427914619445801
      ],
      "min": [
        9.5367431640625e-07,
        1.0132789611816406e-06
      ],
      "type": "VEC2"
    },
    {
      "bufferView": 1,
      "byteOffset": 4718304,
      "componentType": 5126,
      "count": 65532,
      "max": [
        0.9999990463256836,
        0.9427914619445801
      ],
      "min": [
        9.5367431640625e-07,
        1.0132789611816406e-06
      ],
      "type": "VEC2"
    },
    {
      "bufferView": 0,
      "componentType": 5125,
      "count": 366264,
      "type": "SCALAR"
    },
    {
      "bufferView": 2,
      "byteOffset": 1572768,
      "componentType": 5126,
      "count": 65532,
      "max": [
        418.6241455078125,
        1.52587890625e-05,
        148.9669189453125
      ],
      "min": [
        -418.8502197265625,
        -192.9966583251953,
        -148.9669189453125
      ],
      "type": "VEC3"
    },
    {
      "bufferView": 2,
      "byteOffset": 2359152,
      "componentType": 5126,
      "count": 65532,
      "max": [
        1.0,
        0.9999983310699463,
        0.9999920725822449
      ],
      "min": [
        -1.0,
        -1.0,
        -0.9999969601631165
      ],
      "type": "VEC3"
    },
    {
      "bufferView": 1,
      "byteOffset": 5242560,
      "componentType": 5126,
      "count": 65532,
      "max": [
        0.9067314863204956,
        0.9050028324127197
      ],
      "min": [
        1.0356307029724121e-06,
        1.0728836059570313e-06
      ],
      "type": "VEC2"
    },
    {
      "bufferView": 1,
      "byteOffset": 5766816,
      "componentType": 5126,
      "count": 65532,
      "max": [
        0.9067314863204956,
        0.9050028324127197
      ],
      "min": [
        1.0356307029724121e-06,
        1.0728836059570313e-06
      ],
      "type": "VEC2"
    },
    {
      "bufferView": 1,
      "byteOffset": 6291072,
      "componentType": 5126,
      "count": 65532,
      "max": [
        0.9067314863204956,
        0.9050028324127197
      ],
      "min": [
        1.0356307029724121e-06,
        1.0728836059570313e-06
      ],
      "type": "VEC2"
    },
    {
      "bufferView": 1,
      "byteOffset": 6815328,
      "componentType": 5126,
      "count": 65532,
      "max": [
        0.9067314863204956,
        0.9050028324127197
      ],
      "min": [
        1.0356307029724121e-06,
        1.0728836059570313e-06
      ],
      "type": "VEC2"
    },
    {
      "bufferView": 1,
      "byteOffset": 7339584,
      "componentType": 5126,
      "count": 65532,
      "max": [
        0.9067314863204956,
        0.9050028324127197
      ],
      "min": [
        1.0356307029724121e-06,
        1.0728836059570313e-06
      ],
      "type": "VEC2"
    },
    {
      "bufferView": 1,
      "byteOffset": 7863840,
      "componentType": 5126,
      "count": 65532,
      "max": [
        0.9067314863204956,
        0.9050028324127197
      ],
      "min": [
        1.0356307029724121e-06,
        1.0728836059570313e-06
      ],
      "type": "VEC2"
    },
    {
      "bufferView": 1,
      "byteOffset": 8388096,
      "componentType": 5126,
      "count": 65532,
      "max": [
        0.9067314863204956,
        0.9050028324127197
      ],
      "min": [
        1.0356307029724121e-06,
        1.0728836059570313e-06
      ],
      "type": "VEC2"
    },
    {
      "bufferView": 1,
      "byteOffset": 8912352,
      "componentType": 5126,
      "count": 65532,
      "max": [
        0.9067314863204956,
        0.9050028324127197
      ],
      "min": [
        1.0356307029724121e-06,
        1.0728836059570313e-06
      ],
      "type": "VEC2"
    },
    {
      "bufferView": 1,
      "byteOffset": 9436608,
      "componentType": 5126,
      "count": 65532,
      "max": [
        0.9067314863204956,
        0.9050028324127197
      ],
      "min": [
        1.0356307029724121e-06,
        1.0728836059570313e-06
      ],
      "type": "VEC2"
    },
    {
      "bufferView": 1,
      "byteOffset": 9960864,
      "componentType": 5126,
      "count": 65532,
      "max": [
        0.9067314863204956,
        0.9050028324127197
      ],
      "min": [
        1.0356307029724121e-06,
        1.0728836059570313e-06
      ],
      "type": "VEC2"
    },
    {
      "bufferView": 0,
      "byteOffset": 1465056,
      "componentType": 5125,
      "count": 367674,
      "type": "SCALAR"
    },
    {
      "bufferView": 2,
      "byteOffset": 3145536,
      "componentType": 5126,
      "count": 65532,
      "max": [
        419.5447998046875,
        -0.0340423583984375,
        121.38312530517578
      ],
      "min": [
        -418.8760986328125,
        -192.99661254882813,
        -148.9669189453125
      ],
      "type": "VEC3"
    },
    {
      "bufferView": 2,
      "byteOffset": 3931920,
      "componentType": 5126,
      "count": 65532,
      "max": [
        1.0,
        1.0,
        1.0
      ],
      "min": [
        -1.0,
        -1.0,
        -1.0
      ],
      "type": "VEC3"
    },
    {
      "bufferView": 1,
      "byteOffset": 10485120,
      "componentType": 5126,
      "count": 65532,
      "max": [
        0.8165556788444519,
        0.7741470336914063
      ],
      "min": [
        0.0,
        0.0
      ],
      "type": "VEC2"
    },
    {
      "bufferView": 1,
      "byteOffset": 11009376,
      "componentType": 5126,
      "count": 65532,
      "max": [
        0.8165556788444519,
        0.7741470336914063
      ],
      "min": [
        0.0,
        0.0
      ],
      "type": "VEC2"
    },
    {
      "bufferView": 1,
      "byteOffset": 11533632,
      "componentType": 5126,
      "count": 65532,
      "max": [
        0.8165556788444519,
        0.7741470336914063
      ],
      "min": [
        0.0,
        0.0
      ],
      "type": "VEC2"
    },
    {
      "bufferView": 1,
      "byteOffset": 12057888,
      "componentType": 5126,
      "count": 65532,
      "max": [
        0.8165556788444519,
        0.7741470336914063
      ],
      "min": [
        0.0,
        0.0
      ],
      "type": "VEC2"
    },
    {
      "bufferView": 1,
      "byteOffset": 12582144,
      "componentType": 5126,
      "count": 65532,
      "max": [
        0.8165556788444519,
        0.7741470336914063
      ],
      "min": [
        0.0,
        0.0
      ],
      "type": "VEC2"
    },
    {
      "bufferView": 1,
      "byteOffset": 13106400,
      "componentType": 5126,
      "count": 65532,
      "max": [
        0.8165556788444519,
        0.7741470336914063
      ],
      "min": [
        0.0,
        0.0
      ],
      "type": "VEC2"
    },
    {
      "bufferView": 1,
      "byteOffset": 13630656,
      "componentType": 5126,
      "count": 65532,
      "max": [
        0.8165556788444519,
        0.7741470336914063
      ],
      "min": [
        0.0,
        0.0
      ],
      "type": "VEC2"
    },
    {
      "bufferView": 1,
      "byteOffset": 14154912,
      "componentType": 5126,
      "count": 65532,
      "max": [
        0.8165556788444519,
        0.7741470336914063
      ],
      "min": [
        0.0,
        0.0
      ],
      "type": "VEC2"
    },
    {
      "bufferView": 1,
      "byteOffset": 14679168,
      "componentType": 5126,
      "count": 65532,
      "max": [
        0.8165556788444519,
        0.7741470336914063
      ],
      "min": [
        0.0,
        0.0
      ],
      "type": "VEC2"
    },
    {
      "bufferView": 1,
      "byteOffset": 15203424,
      "componentType": 5126,
      "count": 65532,
      "max": [
        0.8165556788444519,
        0.7741470336914063
      ],
      "min": [
        0.0,
        0.0
      ],
      "type": "VEC2"
    },
    {
      "bufferView": 0,
      "byteOffset": 2935752,
      "componentType": 5125,
      "count": 375351,
      "type": "SCALAR"
    },
    {
      "bufferView": 2,
      "byteOffset": 4718304,
      "componentType": 5126,
      "count": 65532,
      "max": [
        418.6566162109375,
        1.52587890625e-05,
        148.9592742919922
      ],
      "min": [
        -419.03021240234375,
        -184.23834228515625,
        -148.76744079589844
      ],
      "type": "VEC3"
    },
    {
      "bufferView": 2,
      "byteOffset": 5504688,
      "componentType": 5126,
      "count": 65532,
      "max": [
        1.0,
        1.0,
        1.0
      ],
      "min": [
        -1.0,
        -1.0,
        -0.9998180270195007
      ],
      "type": "VEC3"
    },
    {
      "bufferView": 1,
      "byteOffset": 15727680,
      "componentType": 5126,
      "count": 65532,
      "max": [
        0.9234927296638489,
        0.9832653403282166
      ],
      "min": [
        0.0,
        0.0
      ],
      "type": "VEC2"
    },
    {
      "bufferView": 1,
      "byteOffset": 16251936,
      "componentType": 5126,
      "count": 65532,
      "max": [
        0.9234927296638489,
        0.9832653403282166
      ],
      "min": [
        0.0,
        0.0
      ],
      "type": "VEC2"
    },
    {
      "bufferView": 1,
      "byteOffset": 16776192,
      "componentType": 5126,
      "count": 65532,
      "max": [
        0.9234927296638489,
        0.9832653403282166
      ],
      "min": [
        0.0,
        0.0
      ],
      "type": "VEC2"
    },
    {
      "bufferView": 1,
      "byteOffset": 17300448,
      "componentType": 5126,
      "count": 65532,
      "max": [
        0.9234927296638489,
        0.9832653403282166
      ],
      "min": [
        0.0,
        0.0
      ],
      "type": "VEC2"
    },
    {
      "bufferView": 1,
      "byteOffset": 17824704,
      "componentType": 5126,
      "count": 65532,
      "max": [
        0.9234927296638489,
        0.9832653403282166
      ],
      "min": [
        0.0,
        0.0
      ],
      "type": "VEC2"
    },
    {
      "bufferView": 1,
      "byteOffset": 18348960,
      "componentType": 5126,
      "count": 65532,
      "max": [
        0.9234927296638489,
        0.9832653403282166
      ],
      "min": [
        0.0,
        0.0
      ],
      "type": "VEC2"
    },
    {
      "bufferView": 1,
      "byteOffset": 18873216,
      "componentType": 5126,
      "count": 65532,
      "max": [
        0.9234927296638489,
        0.9832653403282166
      ],
      "min": [
        0.0,
        0.0
      ],
      "type": "VEC2"
    },
    {
      "bufferView": 1,
      "byteOffset": 19397472,
      "componentType": 5126,
      "count": 65532,
      "max": [
        0.9234927296638489,
        0.9832653403282166
      ],
      "min": [
        0.0,
        0.0
      ],
      "type": "VEC2"
    },
    {
      "bufferView": 1,
      "byteOffset": 19921728,
      "componentType": 5126,
      "count": 65532,
      "max": [
        0.9234927296638489,
        0.9832653403282166
      ],
      "min": [
        0.0,
        0.0
      ],
      "type": "VEC2"
    },
    {
      "bufferView": 1,
      "byteOffset": 20445984,
      "componentType": 5126,
      "count": 65532,
      "max": [
        0.9234927296638489,
        0.9832653403282166
      ],
      "min": [
        0.0,
        0.0
      ],
      "type": "VEC2"
    },
    {
      "bufferView": 0,
      "byteOffset": 4437156,
      "componentType": 5125,
      "count": 370074,
      "type": "SCALAR"
    },
    {
      "bufferView": 2,
      "byteOffset": 6291072,
      "componentType": 5126,
      "count": 31972,
      "max": [
        413.7056884765625,
        -69.58555603027344,
        -60.35786437988281
      ],
      "min": [
        413.1724853515625,
        -76.10623168945313,
        -70.879150390625
      ],
      "type": "VEC3"
    },
    {
      "bufferView": 2,
      "byteOffset": 6674736,
      "componentType": 5126,
      "count": 31972,
      "max": [
        0.9998495578765869,
        0.9998266696929932,
        0.9998171329498291
      ],
      "min": [
        0.018178176134824753,
        -0.9998048543930054,
        -0.9998157024383545
      ],
      "type": "VEC3"
    },
    {
      "bufferView": 1,
      "byteOffset": 20970240,
      "componentType": 5126,
      "count": 31972,
      "max": [
        0.21038830280303955,
        0.20895230770111084
      ],
      "min": [
        0.0018876194953918457,
        0.0066040754318237305
      ],
      "type": "VEC2"
    },
    {
      "bufferView": 1,
      "byteOffset": 21226016,
      "componentType": 5126,
      "count": 31972,
      "max": [
        0.21038830280303955,
        0.20895230770111084
      ],
      "min": [
        0.0018876194953918457,
        0.0066040754318237305
      ],
      "type": "VEC2"
    },
    {
      "bufferView": 1,
      "byteOffset": 21481792,
      "componentType": 5126,
      "count": 31972,
      "max": [
        0.21038830280303955,
        0.20895230770111084
      ],
      "min": [
        0.0018876194953918457,
        0.0066040754318237305
      ],
      "type": "VEC2"
    },
    {
      "bufferView": 1,
      "byteOffset": 21737568,
      "componentType": 5126,
      "count": 31972,
      "max": [
        0.21038830280303955,
        0.20895230770111084
      ],
      "min": [
        0.0018876194953918457,
        0.0066040754318237305
      ],
      "type": "VEC2"
    },
    {
      "bufferView": 1,
      "byteOffset": 21993344,
      "componentType": 5126,
      "count": 31972,
      "max": [
        0.21038830280303955,
        0.20895230770111084
      ],
      "min": [
        0.0018876194953918457,
        0.0066040754318237305
      ],
      "type": "VEC2"
    },
    {
      "bufferView": 1,
      "byteOffset": 22249120,
      "componentType": 5126,
      "count": 31972,
      "max": [
        0.21038830280303955,
        0.20895230770111084
      ],
      "min": [
        0.0018876194953918457,
        0.0066040754318237305
      ],
      "type": "VEC2"
    },
    {
      "bufferView": 1,
      "byteOffset": 22504896,
      "componentType": 5126,
      "count": 31972,
      "max": [
        0.21038830280303955,
        0.20895230770111084
      ],
      "min": [
        0.0018876194953918457,
        0.0066040754318237305
      ],
      "type": "VEC2"
    },
    {
      "bufferView": 1,
      "byteOffset": 22760672,
      "componentType": 5126,
      "count": 31972,
      "max": [
        0.21038830280303955,
        0.20895230770111084
      ],
      "min": [
        0.0018876194953918457,
        0.0066040754318237305
      ],
      "type": "VEC2"
    },
    {
      "bufferView": 1,
      "byteOffset": 23016448,
      "componentType": 5126,
      "count": 31972,
      "max": [
        0.21038830280303955,
        0.20895230770111084
      ],
      "min": [
        0.0018876194953918457,
        0.0066040754318237305
      ],
      "type": "VEC2"
    },
    {
      "bufferView": 1,
      "byteOffset": 23272224,
      "componentType": 5126,
      "count": 31972,
      "max": [
        0.21038830280303955,
        0.20895230770111084
      ],
      "min": [
        0.0018876194953918457,
        0.0066040754318237305
      ],
      "type": "VEC2"
    },
    {
      "bufferView": 0,
      "byteOffset": 5917452,
      "componentType": 5125,
      "count": 185865,
      "type": "SCALAR"
    }
  ],
  "asset": {
    "extras": {
      "author": "Grixa191 (https://sketchfab.com/Grixa191)",
      "license": "CC-BY-4.0 (http://creativecommons.org/licenses/by/4.0/)",
      "source": "https://sketchfab.com/3d-models/air-conditioner-lg-4b7e70e820b445a0b548a3fcab33d1e8",
      "title": "air conditioner LG"
    },
    "generator": "Sketchfab-15.33.0",
    "version": "2.0"
  },
  "bufferViews": [
    {
      "buffer": 0,
      "byteLength": 6660912,
      "name": "floatBufferViews",
      "target": 34963
    },
    {
      "buffer": 0,
      "byteLength": 23528000,
      "byteOffset": 6660912,
      "byteStride": 8,
      "name": "floatBufferViews",
      "target": 34962
    },
    {
      "buffer": 0,
      "byteLength": 7058400,
      "byteOffset": 30188912,
      "byteStride": 12,
      "name": "floatBufferViews",
      "target": 34962
    }
  ],
  "buffers": [
    {
      "byteLength": 37247312,
      "uri": "scene.bin"
    }
  ],
  "images": [
    {
      "uri": "textures/Material_2_baseColor.png"
    },
    {
      "uri": "textures/Material_2_metallicRoughness.png"
    }
  ],
  "materials": [
    {
      "doubleSided": true,
      "name": "Material_2",
      "pbrMetallicRoughness": {
        "baseColorTexture": {
          "index": 0
        },
        "metallicRoughnessTexture": {
          "index": 1
        }
      }
    }
  ],
  "meshes": [
    {
      "name": "cond_Material #2_0",
      "primitives": [
        {
          "attributes": {
            "NORMAL": 1,
            "POSITION": 0,
            "TEXCOORD_0": 2,
            "TEXCOORD_1": 3,
            "TEXCOORD_2": 4,
            "TEXCOORD_3": 5,
            "TEXCOORD_4": 6,
            "TEXCOORD_5": 7,
            "TEXCOORD_6": 8,
            "TEXCOORD_7": 9,
            "TEXCOORD_8": 10,
            "TEXCOORD_9": 11
          },
          "indices": 12,
          "material": 0,
          "mode": 4
        }
      ]
    },
    {
      "name": "cond_Material #2_0",
      "primitives": [
        {
          "attributes": {
            "NORMAL": 14,
            "POSITION": 13,
            "TEXCOORD_0": 15,
            "TEXCOORD_1": 16,
            "TEXCOORD_2": 17,
            "TEXCOORD_3": 18,
            "TEXCOORD_4": 19,
            "TEXCOORD_5": 20,
            "TEXCOORD_6": 21,
            "TEXCOORD_7": 22,
            "TEXCOORD_8": 23,
            "TEXCOORD_9": 24
          },
          "indices": 25,
          "material": 0,
          "mode": 4
        }
      ]
    },
    {
      "name": "cond_Material #2_0",
      "primitives": [
        {
          "attributes": {
            "NORMAL": 27,
            "POSITION": 26,
            "TEXCOORD_0": 28,
            "TEXCOORD_1": 29,
            "TEXCOORD_2": 30,
            "TEXCOORD_3": 31,
            "TEXCOORD_4": 32,
            "TEXCOORD_5": 33,
            "TEXCOORD_6": 34,
            "TEXCOORD_7": 35,
            "TEXCOORD_8": 36,
            "TEXCOORD_9": 37
          },
          "indices": 38,
          "material": 0,
          "mode": 4
        }
      ]
    },
    {
      "name": "cond_Material #2_0",
      "primitives": [
        {
          "attributes": {
            "NORMAL": 40,
            "POSITION": 39,
            "TEXCOORD_0": 41,
            "TEXCOORD_1": 42,
            "TEXCOORD_2": 43,
            "TEXCOORD_3": 44,
            "TEXCOORD_4": 45,
            "TEXCOORD_5": 46,
            "TEXCOORD_6": 47,
            "TEXCOORD_7": 48,
            "TEXCOORD_8": 49,
            "TEXCOORD_9": 50
          },
          "indices": 51,
          "material": 0,
          "mode": 4
        }
      ]
    },
    {
      "name": "cond_Material #2_0",
      "primitives": [
        {
          "attributes": {
            "NORMAL": 53,
            "POSITION": 52,
            "TEXCOORD_0": 54,
            "TEXCOORD_1": 55,
            "TEXCOORD_2": 56,
            "TEXCOORD_3": 57,
            "TEXCOORD_4": 58,
            "TEXCOORD_5": 59,
            "TEXCOORD_6": 60,
            "TEXCOORD_7": 61,
            "TEXCOORD_8": 62,
            "TEXCOORD_9": 63
          },
          "indices": 64,
          "material": 0,
          "mode": 4
        }
      ]
    }
  ],
  "nodes": [
    {
      "children": [
        1
      ],
      "matrix": [
        1.0,
        0.0,
        0.0,
        0.0,
        0.0,
        2.220446049250313e-16,
        -1.0,
        0.0,
        0.0,
        1.0,
        2.220446049250313e-16,
        0.0,
        0.0,
        0.0,
        0.0,
        1.0
      ],
      "name": "Sketchfab_model"
    },
    {
      "children": [
        2
      ],
      "matrix": [
        0.0010000000474974513,
        0.0,
        0.0,
        0.0,
        0.0,
        0.0,
        0.0010000000474974513,
        0.0,
        0.0,
        -0.0010000000474974513,
        0.0,
        0.0,
        0.0,
        0.0,
        0.0,
        1.0
      ],
      "name": "condfbx.fbx"
    },
    {
      "children": [
        3
      ],
      "name": "RootNode"
    },
    {
      "children": [
        4,
        5,
        6,
        7,
        8
      ],
      "matrix": [
        1.0,
        0.0,
        0.0,
        0.0,
        0.0,
        2.220446049250313e-16,
        -1.0,
        0.0,
        0.0,
        1.0,
        2.220446049250313e-16,
        0.0,
        -3.0517578125e-05,
        0.0,
        -96.49832153320313,
        1.0
      ],
      "name": "cond"
    },
    {
      "mesh": 0,
      "name": "cond_Material #2_0"
    },
    {
      "mesh": 1,
      "name": "cond_Material #2_0"
    },
    {
      "mesh": 2,
      "name": "cond_Material #2_0"
    },
    {
      "mesh": 3,
      "name": "cond_Material #2_0"
    },
    {
      "mesh": 4,
      "name": "cond_Material #2_0"
    }
  ],
  "samplers": [
    {
      "magFilter": 9729,
      "minFilter": 9987,
      "wrapS": 10497,
      "wrapT": 10497
    }
  ],
  "scene": 0,
  "scenes": [
    {
      "name": "Sketchfab_Scene",
      "nodes": [
        0
      ]
    }
  ],
  "textures": [
    {
      "sampler": 0,
      "source": 0
    },
    {
      "sampler": 0,
      "source": 1
    }
  ]
}
