{
  "accessors": [
    {
      "bufferView": 2,
      "componentType": 5126,
      "count": 65532,
      "max": [
        0.39191800355911255,
        0.08351399749517441,
        0.6171370148658752
      ],
      "min": [
        -0.44906699657440186,
        0.03116999939084053,
        -0.4181959927082062
      ],
      "type": "VEC3"
    },
    {
      "bufferView": 2,
      "byteOffset": 786384,
      "componentType": 5126,
      "count": 65532,
      "max": [
        0.9449031352996826,
        0.9999996423721313,
        0.921763002872467
      ],
      "min": [
        -0.965998113155365,
        -0.06909997016191483,
        -0.9644054174423218
      ],
      "type": "VEC3"
    },
    {
      "bufferView": 3,
      "componentType": 5126,
      "count": 65532,
      "max": [
        0.9999948143959045,
        0.9794532656669617,
        1.0,
        1.0
      ],
      "min": [
        -0.9999932050704956,
        -0.9392591118812561,
        -0.9999802708625793,
        -1.0
      ],
      "type": "VEC4"
    },
    {
      "bufferView": 1,
      "componentType": 5126,
      "count": 65532,
      "max": [
        0.9889709949493408,
        0.9999979734420776
      ],
      "min": [
        0.007098000030964613,
        0.01573999971151352
      ],
      "type": "VEC2"
    },
    {
      "bufferView": 0,
      "componentType": 5125,
      "count": 369693,
      "type": "SCALAR"
    },
    {
      "bufferView": 2,
      "byteOffset": 1572768,
      "componentType": 5126,
      "count": 21021,
      "max": [
        0.37900298833847046,
        0.08361199498176575,
        0.554186999797821
      ],
      "min": [
        -0.44109800457954407,
        0.034540995955467224,
        -0.388949990272522
      ],
      "type": "VEC3"
    },
    {
      "bufferView": 2,
      "byteOffset": 1825020,
      "componentType": 5126,
      "count": 21021,
      "max": [
        0.9713321328163147,
        0.9999989867210388,
        0.8931487202644348
      ],
      "min": [
        -0.9265339970588684,
        0.107526034116745,
        -0.9234285950660706
      ],
      "type": "VEC3"
    },
    {
      "bufferView": 3,
      "byteOffset": 1048512,
      "componentType": 5126,
      "count": 21021,
      "max": [
        0.9999647736549377,
        0.9896156787872314,
        0.9999988675117493,
        1.0
      ],
      "min": [
        -0.9999982714653015,
        -0.9682559370994568,
        -0.9999895095825195,
        -1.0
      ],
      "type": "VEC4"
    },
    {
      "bufferView": 1,
      "byteOffset": 524256,
      "componentType": 5126,
      "count": 21021,
      "max": [
        0.9892449975013733,
        0.9934409856796265
      ],
      "min": [
        2.8000000384054147e-05,
        0.012854999862611294
      ],
      "type": "VEC2"
    },
    {
      "bufferView": 0,
      "byteOffset": 1478772,
      "componentType": 5125,
      "count": 115074,
      "type": "SCALAR"
    }
  ],
  "asset": {
    "extras": {
      "author": "rikardo2041 (https://sketchfab.com/rikardo2041)",
      "license": "CC-BY-4.0 (http://creativecommons.org/licenses/by/4.0/)",
      "source": "https://sketchfab.com/3d-models/stone-ground-9658c401bdef4cb8ab1e85b67622fa20",
      "title": "Stone Ground"
    },
    "generator": "Sketchfab-15.32.0",
    "version": "2.0"
  },
  "bufferViews": [
    {
      "buffer": 0,
      "byteLength": 1939068,
      "name": "floatBufferViews",
      "target": 34963
    },
    {
      "buffer": 0,
      "byteLength": 692424,
      "byteOffset": 1939068,
      "byteStride": 8,
      "name": "floatBufferViews",
      "target": 34962
    },
    {
      "buffer": 0,
      "byteLength": 2077272,
      "byteOffset": 2631492,
      "byteStride": 12,
      "name": "floatBufferViews",
      "target": 34962
    },
    {
      "buffer": 0,
      "byteLength": 1384848,
      "byteOffset": 4708764,
      "byteStride": 16,
      "name": "floatBufferViews",
      "target": 34962
    }
  ],
  "buffers": [
    {
      "byteLength": 6093612,
      "uri": "scene.bin"
    }
  ],
  "extensionsUsed": [
    "KHR_materials_specular"
  ],
  "images": [
    {
      "uri": "textures/RockStreet_baseColor.jpeg"
    },
    {
      "uri": "textures/RockStreet_metallicRoughness.png"
    },
    {
      "uri": "textures/RockStreet_normal.png"
    }
  ],
  "materials": [
    {
      "doubleSided": true,
      "extensions": {
        "KHR_materials_specular": {
          "specularColorFactor": [
            1.0,
            1.0,
            1.0
          ],
          "specularFactor": 0.0
        }
      },
      "name": "RockStreet",
      "normalTexture": {
        "index": 2
      },
      "occlusionTexture": {
        "index": 1
      },
      "pbrMetallicRoughness": {
        "baseColorTexture": {
          "index": 0
        },
        "metallicFactor": 0.0,
        "metallicRoughnessTexture": {
          "index": 1
        }
      }
    }
  ],
  "meshes": [
    {
      "name": "smooth1_RockStreet_0",
      "primitives": [
        {
          "attributes": {
            "NORMAL": 1,
            "POSITION": 0,
            "TANGENT": 2,
            "TEXCOORD_0": 3
          },
          "indices": 4,
          "material": 0,
          "mode": 4
        }
      ]
    },
    {
      "name": "smooth1_RockStreet_0",
      "primitives": [
        {
          "attributes": {
            "NORMAL": 6,
            "POSITION": 5,
            "TANGENT": 7,
            "TEXCOORD_0": 8
          },
          "indices": 9,
          "material": 0,
          "mode": 4
        }
      ]
    }
  ],
  "nodes": [
    {
      "children": [
        1
      ],
      "matrix": [
        1.0,
        0.0,
        0.0,
        0.0,
        0.0,
        2.220446049250313e-16,
        -1.0,
        0.0,
        0.0,
        1.0,
        2.220446049250313e-16,
        0.0,
        0.0,
        0.0,
        0.0,
        1.0
      ],
      "name": "Sketchfab_model"
    },
    {
      "children": [
        2
      ],
      "matrix": [
        0.009999999776482582,
        0.0,
        0.0,
        0.0,
        0.0,
        0.0,
        0.009999999776482582,
        0.0,
        0.0,
        -0.009999999776482582,
        0.0,
        0.0,
        0.0,
        0.0,
        0.0,
        1.0
      ],
      "name": "986b879b4f2c4d68b4a2cad8c5ca1510.fbx"
    },
    {
      "children": [
        3
      ],
      "name": "RootNode"
    },
    {
      "children": [
        4,
        5
      ],
      "name": "smooth1"
    },
    {
      "mesh": 0,
      "name": "smooth1_RockStreet_0"
    },
    {
      "mesh": 1,
      "name": "smooth1_RockStreet_0"
    }
  ],
  "samplers": [
    {
      "magFilter": 9729,
      "minFilter": 9987,
      "wrapS": 10497,
      "wrapT": 10497
    }
  ],
  "scene": 0,
  "scenes": [
    {
      "name": "Sketchfab_Scene",
      "nodes": [
        0
      ]
    }
  ],
  "textures": [
    {
      "sampler": 0,
      "source": 0
    },
    {
      "sampler": 0,
      "source": 1
    },
    {
      "sampler": 0,
      "source": 2
    }
  ]
}
